<svg xmlns="http://www.w3.org/2000/svg" height="512pt" version="1.1" viewBox="0 0 512 512" width="512pt">
<g id="surface1">
<path d="M 45 90 C 45.578125 90 46.152344 89.976562 46.730469 89.957031 L 73.734375 158.917969 C 47.84375 171.28125 30 199.078125 30 230.210938 L 30 377 C 30 451.4375 90.5625 512 165 512 L 346.136719 512 C 346.152344 512 346.164062 511.996094 346.179688 511.996094 C 437.632812 511.898438 512 437.921875 512 347 L 512 332 C 512 227.785156 421.628906 142.519531 313.367188 152.84375 C 257.695312 158.152344 209.359375 190.449219 180 236.449219 L 180 227 C 180 197.289062 162.5625 170.878906 136.292969 158.847656 L 163.269531 89.957031 C 163.84375 89.976562 164.421875 90 165 90 C 189.8125 90 210 69.8125 210 45 C 210 20.1875 189.8125 0 165 0 C 140.1875 0 120 20.1875 120 45 C 120 58.488281 125.972656 70.597656 135.402344 78.851562 L 106.738281 152.042969 C 105.582031 152.011719 104.421875 152.011719 103.257812 152.039062 L 74.601562 78.851562 C 84.027344 70.597656 90 58.488281 90 45 C 90 20.1875 69.8125 0 45 0 C 20.1875 0 0 20.1875 0 45 C 0 69.8125 20.1875 90 45 90 Z M 165 30 C 173.269531 30 180 36.730469 180 45 C 180 53.269531 173.269531 60 165 60 C 156.730469 60 150 53.269531 150 45 C 150 36.730469 156.730469 30 165 30 Z M 316.214844 182.707031 C 407.320312 174.019531 482 245.859375 482 332 L 482 347 C 482 421.4375 420.988281 482 346 482 C 287.550781 482 240 434.898438 240 377 L 240 352.097656 C 240 310.070312 272.273438 274.1875 311.945312 272.105469 C 355.234375 269.839844 391 304.148438 391 346.996094 L 391 362 C 391 378.542969 377.542969 392 361 392 C 344.457031 392 331 378.542969 331 362 L 331 347 C 331 338.714844 324.285156 332 316 332 C 307.714844 332 301 338.714844 301 347 L 301 362 C 301 395.085938 327.914062 422 361 422 C 394.085938 422 421 395.085938 421 362 L 421 346.996094 C 421 286.984375 370.894531 238.984375 310.375 242.148438 C 253.375 245.136719 210 295.695312 210 352.097656 L 210 377 C 210 381.257812 210.210938 385.464844 210.597656 389.621094 C 192.828125 383.601562 180 366.777344 180 347 L 180 339.089844 C 180 258.683594 239.832031 189.992188 316.214844 182.707031 Z M 150 347 C 150 385.875 179.730469 417.929688 217.648438 421.636719 C 226.109375 445.53125 241.15625 466.371094 260.625 482 L 165 482 C 107.101562 482 60 434.898438 60 377 L 60 230.210938 C 60 206.546875 76.050781 186.089844 97.332031 182.628906 C 125.84375 177.988281 150 199.835938 150 227 Z M 45 30 C 53.269531 30 60 36.730469 60 45 C 60 53.269531 53.269531 60 45 60 C 36.730469 60 30 53.269531 30 45 C 30 36.730469 36.730469 30 45 30 Z M 45 30 " style=" stroke:none;fill-rule:nonzero;fill:rgb(0%,0%,0%);fill-opacity:1;" />
<path d="M 105 212 C 96.714844 212 90 218.714844 90 227 L 90 257 C 90 265.285156 96.714844 272 105 272 C 113.285156 272 120 265.285156 120 257 L 120 227 C 120 218.714844 113.285156 212 105 212 Z M 105 212 " style=" stroke:none;fill-rule:nonzero;fill:rgb(0%,0%,0%);fill-opacity:1;" />
</g>
</svg>